<?xml version="1.0" encoding="UTF-8"?>
<svg width="65px" height="45px" viewBox="0 0 65 45" version="1.1" xmlns="http://www.w3.org/2000/svg" xmlns:xlink="http://www.w3.org/1999/xlink">
    <title>B7CBD28B-CE19-48BE-A9D3-A47ED9C548D0</title>
    <defs>
        <filter id="filter-1">
            <feColorMatrix in="SourceGraphic" type="matrix" values="0 0 0 0 1.000000 0 0 0 0 1.000000 0 0 0 0 1.000000 0 0 0 1.000000 0"></feColorMatrix>
        </filter>
    </defs>
    <g id="Page-1" stroke="none" stroke-width="1" fill="none" fill-rule="evenodd">
        <g id="Group-12-Copy" transform="translate(-436.000000, -21.000000)" filter="url(#filter-1)">
            <g transform="translate(436.000000, 21.000000)">
                <g id="Group" transform="translate(0.889055, 0.013629)" fill="#323439">
                    <polygon id="Fill-14" points="59.132869 22.7046099 59.132869 17.8550725 57.3473964 17.8550725 57.3473964 22.7046099 52.48 22.7046099 52.48 24.4837959 57.3473964 24.4837959 57.3473964 29.3333333 59.132869 29.3333333 59.132869 24.4837959 64 24.4837959 64 22.7046099"></polygon>
                    <path d="M48.091573,19.0742199 C47.633732,18.597761 47.0043,18.229444 46.2016881,17.9671536 C45.4011946,17.7072429 44.3766795,17.5745113 43.1257594,17.5745113 C41.8912571,17.5745113 40.8762747,17.7024836 40.0855789,17.9555198 C39.2924998,18.209878 38.6633326,18.5837475 38.195694,19.0742199 C37.7304386,19.565221 37.4073813,20.1717675 37.2339367,20.8941236 C37.057844,21.6162153 36.9709892,22.4440692 36.9709892,23.3805938 L36.9709892,24.0476892 C36.9709892,25.0151492 37.0649936,25.8623048 37.2577688,26.5917998 C37.4508087,27.3210305 37.7664515,27.9299566 38.2078748,28.4114391 C38.6514165,28.8955658 39.2347732,29.256215 39.960328,29.4947089 C40.6861476,29.7332027 41.5899135,29.8508632 42.6748033,29.8508632 C43.5425562,29.8508632 44.2344813,29.7739212 44.7503137,29.6150134 C45.2685293,29.4561057 45.6930053,29.2488117 46.0279786,28.9963043 L46.0279786,29.1626155 C46.0279786,29.7332027 45.9726352,30.2093972 45.8640668,30.5901413 C45.7554984,30.9700921 45.5772873,31.268606 45.3265207,31.483039 C45.0757542,31.6945635 44.7550801,31.8463323 44.3644986,31.9330573 C43.9717987,32.0197823 43.4919792,32.0652601 42.9255698,32.0652601 L42.1240172,32.0652601 L41.9932054,32.0652601 L41.6129512,32.0652601 C40.8744211,32.0811244 40.5728128,32.2231103 40.1403927,32.898931 C36.3193139,39.2266857 29.4895659,43.1105396 22.0327691,43.1105396 C10.3749041,43.1105396 0.890790642,33.6405887 0.890790642,21.9998678 C0.890790642,10.3599401 10.3749041,0.889989243 22.0327691,0.889989243 C30.2513985,0.889989243 37.7254074,5.66065945 41.1943008,13.07565 L42.1769774,13.07565 C38.6418837,5.13237707 30.7367788,0 22.0327691,0 C9.88369819,0 0,9.86946776 0,21.9998678 C0,34.131061 9.88369819,44 22.0327691,44 C29.3312149,44 36.0529241,40.4294668 40.1422463,34.5326932 C40.4658331,34.5369236 40.7679711,34.5398321 41.047601,34.5398321 L43.0749176,34.5398321 C44.1934371,34.5398321 45.1432784,34.4385648 45.9268246,34.2415826 C46.7103709,34.0440716 47.3538374,33.7315442 47.8529873,33.3026783 C48.3542556,32.8740768 48.7159738,32.3182963 48.9426435,31.6371874 C49.1666652,30.9534346 49.28,30.1374789 49.28,29.186412 L49.28,23.048236 C49.28,22.2224973 49.1957933,21.4739651 49.0294982,20.7999952 C48.8632032,20.1239101 48.5496788,19.5512076 48.091573,19.0742199 L48.091573,19.0742199 Z M46.0279786,24.6420729 C46.0279786,25.181196 45.9895825,25.6240753 45.9146438,25.9730907 C45.8399699,26.3218417 45.6930053,26.6013184 45.4761333,26.8059684 C45.2589965,27.0129979 44.9674505,27.159743 44.6009659,27.2464681 C44.2344813,27.3331931 43.7498954,27.3762912 43.1495915,27.3762912 C42.4987106,27.3762912 41.9828782,27.3310779 41.5994463,27.2343054 C41.213896,27.1404414 40.9271165,26.9648761 40.7364598,26.7121044 C40.5436846,26.4566886 40.4184338,26.108202 40.3607071,25.6650582 C40.3024509,25.2195348 40.2738524,24.6492119 40.2738524,23.9509167 L40.2738524,23.4744578 C40.2738524,22.7790711 40.2976845,22.2058398 40.3482615,21.7629604 C40.3991033,21.3177014 40.5243542,20.968686 40.7245437,20.7159142 C40.9247333,20.4631425 41.213896,20.2873127 41.5994463,20.1910691 C41.9828782,20.0974695 42.4987106,20.0493477 43.1495915,20.0493477 C43.8004724,20.0493477 44.3165696,20.0974695 44.7021199,20.1910691 C45.0855518,20.2873127 45.3770977,20.4631425 45.5772873,20.7159142 C45.7774769,20.968686 45.9027278,21.3177014 45.9533047,21.7629604 C46.0014985,22.2058398 46.0279786,22.7790711 46.0279786,23.4744578 L46.0279786,24.6420729 Z" id="Fill-16"></path>
                    <path d="M12.8,13.2477238 L12.8,24.8214436 C12.8,25.9040208 12.9141687,26.8177149 13.1432844,27.5625259 C13.3721407,28.3073369 13.7273609,28.9033948 14.2099829,29.3504383 C14.6915671,29.7972203 15.3085968,30.1190393 16.0605531,30.315111 C16.8122499,30.5109212 17.7191123,30.6086957 18.7819187,30.6086957 C19.9747217,30.6086957 20.9679891,30.4952355 21.7606828,30.2677923 C22.5531171,30.0406106 23.1862342,29.687943 23.6602936,29.2092666 C24.1346125,28.7311131 24.4698532,28.1230295 24.6660157,27.3860613 C24.8619187,26.6490932 24.96,25.7787963 24.96,24.7749093 L24.96,23.4340403 C24.96,22.4304147 24.8577672,21.5637778 24.6538204,20.8346526 C24.4488358,20.1050045 24.1263093,19.5018879 23.6852031,19.0232116 C23.2438375,18.5450581 22.6711779,18.1918676 21.9687812,17.9646859 C21.2658655,17.7375041 20.4080437,17.6235211 19.3947969,17.6235211 C18.5450188,17.6235211 17.8540389,17.6975055 17.3231547,17.8470429 C16.7917515,17.9957959 16.3464937,18.2036319 15.9873814,18.4702894 L15.9873814,12.7536232 L12.8,13.2477238 Z M16.1098532,21.5637778 C16.1913281,21.1800002 16.33845,20.8780498 16.5512188,20.6581881 C16.7634688,20.4385878 17.0616046,20.2856518 17.4456265,20.1996417 C17.8299078,20.1131088 18.316422,20.0702344 18.9043906,20.0702344 C19.4601844,20.0702344 19.9178969,20.1094487 20.2772687,20.1878774 C20.6369,20.2663061 20.9231,20.4268235 21.1356094,20.6699524 C21.3478593,20.9130812 21.4991328,21.261566 21.5889109,21.7169752 C21.678689,22.1721229 21.7238375,22.767658 21.7238375,23.5046261 L21.7238375,24.8214436 C21.7238375,25.5594575 21.678689,26.1476725 21.5889109,26.5860888 C21.4991328,27.0255509 21.3437078,27.3625327 21.1234141,27.5980802 C20.9026016,27.8333662 20.6083578,27.9860407 20.2406828,28.0566265 C19.8730079,28.1272123 19.4108843,28.1625052 18.8553499,28.1625052 C18.2668624,28.1625052 17.7850188,28.1230295 17.4090406,28.0448622 C17.032803,27.9664335 16.7429703,27.8093148 16.5387641,27.5742902 C16.3340389,27.3387427 16.1913281,27.0020223 16.1098532,26.5630831 C16.0275999,26.1236211 15.9873814,25.5432489 15.9873814,24.8214436 L15.9873814,23.0343155 C15.9873814,22.4379961 16.0275999,21.9483398 16.1098532,21.5637778 L16.1098532,21.5637778 Z" id="Fill-18"></path>
                    <path d="M34.6488889,20.0249761 L35.2,17.4486136 L30.2922222,17.4486136 L30.2922222,14.0289855 L26.88,14.5345167 L26.88,25.2510285 C26.88,26.1657482 26.9588889,26.9284607 27.1163889,27.5386307 C27.2736111,28.1485331 27.5580556,28.6342605 27.9694444,28.995813 C28.3802778,29.3568302 28.9405556,29.609462 29.6488889,29.753976 C30.3577778,29.8987575 31.2633333,29.9710145 32.3655556,29.9710145 L34.4913889,29.9710145 L35.0425,27.3941168 L32.6013889,27.3941168 C32.1291667,27.3941168 31.7394444,27.3665521 31.4338889,27.3100846 C31.1275,27.2538847 30.8911111,27.141485 30.725,26.9726178 C30.5586111,26.8042858 30.445,26.5674435 30.3838889,26.2623585 C30.3222222,25.9578087 30.2922222,25.5638744 30.2922222,25.0821613 L30.2922222,20.0249761 L34.6488889,20.0249761 Z" id="Fill-20"></path>
                </g>
            </g>
        </g>
    </g>
</svg>